<svg xmlns="http://www.w3.org/2000/svg" viewBox="0 0 800 391" width="800" height="391" font-family="'Hiragino Sans','Hiragino Kaku Gothic ProN','Noto Sans JP','Yu Gothic','Meiryo',sans-serif" role="img" aria-label="画像生成モデルの出力価格と品質スコア"><rect x="1" y="1" width="798" height="389" rx="16" fill="#111c33" stroke="#2b3b5c" stroke-width="2"/><text x="32" y="46" font-size="21" fill="#e2e8f0" font-weight="bold" text-anchor="start">画像生成モデルの出力価格と品質スコア</text><rect x="32" y="58" width="56" height="4" rx="2" fill="#22d3ee"/><text x="32" y="112" font-size="15" fill="#e2e8f0" font-weight="normal" text-anchor="start">Nano Banana 2.1 出力価格</text><rect x="260" y="96" width="11" height="26" rx="6" fill="#22d3ee"/><text x="281" y="116" font-size="18" fill="#22d3ee" font-weight="bold" text-anchor="start">30ドル/100万トークン</text><text x="32" y="162" font-size="15" fill="#e2e8f0" font-weight="normal" text-anchor="start">Nano Banana 2 出力価格</text><rect x="260" y="146" width="22" height="26" rx="6" fill="#3b82f6"/><text x="292" y="166" font-size="18" fill="#3b82f6" font-weight="bold" text-anchor="start">60ドル/100万トークン</text><text x="32" y="212" font-size="15" fill="#e2e8f0" font-weight="normal" text-anchor="start">Nano Banana 2.1 好みスコ</text><text x="32" y="232" font-size="15" fill="#e2e8f0" font-weight="normal" text-anchor="start">ア</text><rect x="260" y="196" width="380" height="26" rx="6" fill="#a78bfa"/><text x="650" y="216" font-size="18" fill="#a78bfa" font-weight="bold" text-anchor="start">1,050±14</text><text x="32" y="276" font-size="15" fill="#e2e8f0" font-weight="normal" text-anchor="start">Nano Banana 2 好みスコア</text><rect x="260" y="260.5" width="358" height="26" rx="6" fill="#f472b6"/><text x="628" y="280" font-size="18" fill="#f472b6" font-weight="bold" text-anchor="start">990±7</text><text x="32" y="326" font-size="15" fill="#e2e8f0" font-weight="normal" text-anchor="start">Nano Banana Pro 好みスコ</text><text x="32" y="347" font-size="15" fill="#e2e8f0" font-weight="normal" text-anchor="start">ア</text><rect x="260" y="310.5" width="338" height="26" rx="6" fill="#fbbf24"/><text x="608" y="330" font-size="18" fill="#fbbf24" font-weight="bold" text-anchor="start">935±8</text></svg>