<svg xmlns="http://www.w3.org/2000/svg" viewBox="0 0 800 412" width="800" height="412" font-family="'Hiragino Sans','Hiragino Kaku Gothic ProN','Noto Sans JP','Yu Gothic','Meiryo',sans-serif" role="img" aria-label="媒体ごとに異なるAI関連求人の掲載件数"><rect x="1" y="1" width="798" height="410" rx="16" fill="#111c33" stroke="#2b3b5c" stroke-width="2"/><text x="32" y="46" font-size="21" fill="#e2e8f0" font-weight="bold" text-anchor="start">媒体ごとに異なるAI関連求人の掲載件数</text><rect x="32" y="58" width="56" height="4" rx="2" fill="#22d3ee"/><text x="32" y="112" font-size="15" fill="#e2e8f0" font-weight="normal" text-anchor="start">マイナビ転職</text><rect x="260" y="96" width="100" height="26" rx="6" fill="#22d3ee"/><text x="370" y="116" font-size="18" fill="#22d3ee" font-weight="bold" text-anchor="start">742件</text><text x="32" y="162" font-size="15" fill="#e2e8f0" font-weight="normal" text-anchor="start">doda</text><rect x="260" y="146" width="40" height="26" rx="6" fill="#3b82f6"/><text x="310" y="166" font-size="18" fill="#3b82f6" font-weight="bold" text-anchor="start">296件</text><text x="32" y="212" font-size="15" fill="#e2e8f0" font-weight="normal" text-anchor="start">転職AI（企業）</text><rect x="260" y="196" width="380" height="26" rx="6" fill="#a78bfa"/><text x="650" y="216" font-size="18" fill="#a78bfa" font-weight="bold" text-anchor="start">2,830社</text><text x="32" y="262" font-size="15" fill="#e2e8f0" font-weight="normal" text-anchor="start">転職AI（スキル）</text><rect x="260" y="246" width="80" height="26" rx="6" fill="#f472b6"/><text x="350" y="266" font-size="18" fill="#f472b6" font-weight="bold" text-anchor="start">593スキル</text><text x="32" y="312" font-size="15" fill="#e2e8f0" font-weight="normal" text-anchor="start">転職AI（職種）</text><rect x="260" y="296" width="24" height="26" rx="6" fill="#fbbf24"/><text x="294" y="316" font-size="18" fill="#fbbf24" font-weight="bold" text-anchor="start">176職種</text><text x="32" y="362" font-size="15" fill="#e2e8f0" font-weight="normal" text-anchor="start">転職AI（勤務地）</text><rect x="260" y="346" width="8" height="26" rx="6" fill="#22d3ee"/><text x="278" y="366" font-size="18" fill="#22d3ee" font-weight="bold" text-anchor="start">47都道府県</text></svg>